<svg width="24" height="24" viewBox="0 0 24 24" fill="none" xmlns="http://www.w3.org/2000/svg">
<g clip-path="url(#clip0_1236_786)">
<path d="M17.451 6.68003C17.961 6.17403 17.961 5.35003 17.451 4.84303L15.578 2.97003L15.581 2.97203L13.027 0.422033C12.7517 0.155158 12.3827 0.00699766 11.9993 0.00942887C11.6159 0.0118601 11.2488 0.164689 10.977 0.435033L0.42699 10.98C0.29205 11.1141 0.184962 11.2736 0.111886 11.4493C0.0388103 11.6249 0.00119019 11.8133 0.00119019 12.0035C0.00119019 12.1938 0.0388103 12.3821 0.111886 12.5578C0.184962 12.7335 0.29205 12.8929 0.42699 13.027L10.976 23.567C11.2479 23.8388 11.6166 23.9914 12.001 23.9914C12.3854 23.9914 12.7541 23.8388 13.026 23.567L17.449 19.147C17.57 19.0265 17.666 18.8833 17.7315 18.7256C17.797 18.5679 17.8308 18.3988 17.8308 18.228C17.8308 18.0573 17.797 17.8882 17.7315 17.7305C17.666 17.5728 17.57 17.4295 17.449 17.309C17.2045 17.066 16.8737 16.9296 16.529 16.9296C16.1842 16.9296 15.8535 17.066 15.609 17.309L12.259 20.663C12.2268 20.696 12.1883 20.7222 12.1458 20.7401C12.1033 20.758 12.0576 20.7672 12.0115 20.7672C11.9654 20.7672 11.9197 20.758 11.8772 20.7401C11.8347 20.7222 11.7962 20.696 11.764 20.663L3.33699 12.244C3.304 12.2118 3.27779 12.1733 3.25989 12.1308C3.24199 12.0883 3.23277 12.0427 3.23277 11.9965C3.23277 11.9504 3.24199 11.9048 3.25989 11.8623C3.27779 11.8198 3.304 11.7813 3.33699 11.749L11.761 3.32903L11.796 3.30003C11.8624 3.24634 11.9466 3.21961 12.0318 3.22517C12.1171 3.23073 12.1971 3.26817 12.256 3.33003L15.61 6.68003C15.7308 6.80113 15.8742 6.8972 16.0322 6.96276C16.1901 7.02831 16.3595 7.06206 16.5305 7.06206C16.7015 7.06206 16.8708 7.02831 17.0288 6.96276C17.1868 6.8972 17.3302 6.80113 17.451 6.68003ZM9.20699 12.056C9.20699 12.8108 9.50705 13.5347 10.0411 14.0685C10.5753 14.6022 11.2997 14.902 12.055 14.902C12.8103 14.902 13.5347 14.6022 14.0688 14.0685C14.6029 13.5347 14.903 12.8108 14.903 12.056C14.903 11.3012 14.6029 10.5773 14.0688 10.0436C13.5347 9.50988 12.8103 9.21003 12.055 9.21003C11.2997 9.21003 10.5753 9.50988 10.0411 10.0436C9.50705 10.5773 9.20699 11.3012 9.20699 12.056ZM23.574 11.022L20.28 7.74303C20.0353 7.4996 19.704 7.36319 19.3589 7.36375C19.0137 7.36431 18.6829 7.5018 18.439 7.74603C18.318 7.86654 18.222 8.00975 18.1565 8.16746C18.0909 8.32517 18.0572 8.49426 18.0572 8.66503C18.0572 8.83581 18.0909 9.0049 18.1565 9.1626C18.222 9.32031 18.318 9.46353 18.439 9.58403L20.663 11.806C20.803 11.945 20.803 12.162 20.663 12.301L18.471 14.491C18.3501 14.6115 18.2543 14.7547 18.1888 14.9123C18.1234 15.0699 18.0897 15.2389 18.0897 15.4095C18.0897 15.5802 18.1234 15.7492 18.1888 15.9068C18.2543 16.0644 18.3501 16.2075 18.471 16.328C18.7155 16.5711 19.0462 16.7075 19.391 16.7075C19.7357 16.7075 20.0665 16.5711 20.311 16.328L23.575 13.068C23.7096 12.9337 23.8163 12.774 23.889 12.5983C23.9618 12.4226 23.9991 12.2343 23.999 12.0441C23.9988 11.8539 23.961 11.6657 23.888 11.4901C23.8149 11.3146 23.7078 11.1551 23.573 11.021" fill="#A5C9CA"/>
</g>
<defs>
<clipPath id="clip0_1236_786">
<rect width="24" height="24" fill="white"/>
</clipPath>
</defs>
</svg>
