<svg width="24" height="24" viewBox="0 0 24 24" fill="none" xmlns="http://www.w3.org/2000/svg">
<path fill-rule="evenodd" clip-rule="evenodd" d="M5.83359 18.1664C5.68362 18.0164 5.59937 17.813 5.59937 17.6008C5.59937 17.3887 5.68362 17.1853 5.83359 17.0352L16.4688 6.40005H9.59999C9.38782 6.40005 9.18434 6.31576 9.03431 6.16573C8.88428 6.01571 8.79999 5.81222 8.79999 5.60005C8.79999 5.38788 8.88428 5.18439 9.03431 5.03436C9.18434 4.88433 9.38782 4.80005 9.59999 4.80005H18.4C18.6122 4.80005 18.8157 4.88433 18.9657 5.03436C19.1157 5.18439 19.2 5.38788 19.2 5.60005V14.4C19.2 14.6122 19.1157 14.8157 18.9657 14.9657C18.8157 15.1158 18.6122 15.2 18.4 15.2C18.1878 15.2 17.9843 15.1158 17.8343 14.9657C17.6843 14.8157 17.6 14.6122 17.6 14.4V7.53125L6.96639 18.1664C6.89208 18.241 6.8038 18.3001 6.70661 18.3404C6.60942 18.3807 6.50522 18.4015 6.39999 18.4015C6.29477 18.4015 6.19057 18.3807 6.09338 18.3404C5.99619 18.3001 5.90791 18.241 5.83359 18.1664Z" fill="#A5C9CA"/>
</svg>
