<svg width="24" height="24" viewBox="0 0 24 24" fill="none" xmlns="http://www.w3.org/2000/svg">
<path d="M7.53299 12.249C7.52199 14.234 8.97799 15.417 11.301 14.879V9.61799C8.94899 8.90199 7.54299 10.351 7.53299 12.249ZM11.372 2.01099H14.571V17.154C11.505 17.655 8.56699 17.973 6.46699 16.799C3.76199 15.286 3.54399 10.48 5.68499 8.33899C6.76999 7.25399 8.95599 6.48899 11.301 6.98799V2.22499C11.295 2.12399 11.289 2.02299 11.372 2.01099ZM19.761 5.35299H16.562V2.01099H19.761V5.35299Z" fill="#A5C9CA"/>
<path d="M19.761 7.04395C19.758 9.39995 19.758 11.0919 19.758 13.9549C19.622 16.7679 19.654 19.0069 18.623 20.3529C18.42 20.6189 17.989 21.0049 17.628 21.2769C17.325 21.5049 16.747 21.9679 16.42 21.9879C16.089 22.0089 15.24 21.5289 14.856 21.3479C14.351 21.1109 13.885 20.7949 13.363 20.6379C14.581 19.8839 15.735 19.3179 16.207 17.7939C16.617 16.4679 16.562 14.5469 16.562 12.6749C16.562 10.8259 16.571 8.67695 16.571 7.04495L19.761 7.04395Z" fill="#A5C9CA"/>
</svg>
