<svg width="24" height="24" viewBox="0 0 24 24" fill="none" xmlns="http://www.w3.org/2000/svg">
<g clip-path="url(#clip0_1236_814)">
<path d="M3.26077 0.4944C3.32125 0.348102 3.42376 0.223033 3.55535 0.135025C3.68693 0.0470166 3.84167 2.56973e-05 3.99997 0L20 0C20.2121 0 20.4156 0.0842855 20.5657 0.234315C20.7157 0.384344 20.8 0.587827 20.8 0.8V8.8C20.8 9.01217 20.7157 9.21566 20.5657 9.36569C20.4156 9.51571 20.2121 9.6 20 9.6H13.9312L20.5664 16.2336C20.6785 16.3455 20.755 16.4882 20.786 16.6435C20.8169 16.7989 20.8011 16.96 20.7404 17.1063C20.6798 17.2527 20.577 17.3777 20.4452 17.4656C20.3134 17.5535 20.1584 17.6003 20 17.6H12.8V23.2C12.8003 23.3584 12.7535 23.5134 12.6656 23.6452C12.5777 23.777 12.4527 23.8798 12.3063 23.9405C12.16 24.0011 11.9989 24.017 11.8435 23.986C11.6881 23.955 11.5455 23.8786 11.4336 23.7664L3.43357 15.7664C3.35933 15.692 3.30049 15.6036 3.2604 15.5064C3.22032 15.4093 3.19979 15.3051 3.19997 15.2V8.8C3.19997 8.58783 3.28426 8.38434 3.43429 8.23431C3.58432 8.08429 3.7878 8 3.99997 8H10.0688L3.43357 1.3664C3.32176 1.25443 3.24566 1.11183 3.21491 0.956611C3.18415 0.801395 3.20011 0.640544 3.26077 0.4944Z" fill="#A5C9CA"/>
</g>
<defs>
<clipPath id="clip0_1236_814">
<rect width="24" height="24" fill="white"/>
</clipPath>
</defs>
</svg>
