<svg width="24" height="24" viewBox="0 0 24 24" fill="none" xmlns="http://www.w3.org/2000/svg">
<g clip-path="url(#clip0_1234_747)">
<path d="M23.642 5.42997C23.6509 5.46258 23.6556 5.49618 23.656 5.52997V10.679C23.656 10.814 23.583 10.939 23.467 11.005L19.144 13.495V18.429C19.1437 18.495 19.1261 18.5597 19.0932 18.6169C19.0602 18.674 19.0129 18.7216 18.956 18.755L9.92999 23.949C9.90915 23.9606 9.88699 23.9696 9.86399 23.976L9.83999 23.986C9.77725 24.0039 9.71074 24.0039 9.64799 23.986C9.63733 23.9826 9.62733 23.9786 9.61799 23.974C9.59733 23.9673 9.57666 23.959 9.55599 23.949L0.532994 18.755C0.475864 18.7218 0.428384 18.6742 0.395239 18.617C0.362094 18.5599 0.344432 18.4951 0.343994 18.429V2.97397C0.343994 2.94063 0.348661 2.90797 0.357994 2.87597C0.360994 2.86397 0.367994 2.85597 0.371994 2.84397C0.378139 2.82407 0.385829 2.80467 0.394994 2.78597C0.398994 2.77297 0.409994 2.76397 0.417994 2.75297L0.450994 2.70797L0.487994 2.68097C0.501327 2.66897 0.514994 2.65763 0.528994 2.64697L5.04299 0.0499679C5.10016 0.0175366 5.16477 0.000488281 5.23049 0.000488281C5.29622 0.000488281 5.36083 0.0175366 5.41799 0.0499679L9.92999 2.64697H9.93199C9.94599 2.65697 9.95933 2.66797 9.97199 2.67997L10.01 2.70697C10.023 2.72097 10.03 2.73697 10.043 2.75197C10.051 2.76297 10.063 2.77297 10.068 2.78497C10.0773 2.8043 10.0853 2.82363 10.092 2.84297C10.095 2.85397 10.102 2.86397 10.105 2.87497C10.1143 2.9063 10.119 2.93897 10.119 2.97297V12.625L13.879 10.461V5.52697C13.879 5.49363 13.8833 5.46097 13.892 5.42897C13.8967 5.41963 13.901 5.40897 13.905 5.39697L13.929 5.33797C13.936 5.32597 13.947 5.31797 13.954 5.30497L13.987 5.26197C13.9997 5.25063 14.012 5.2413 14.024 5.23397C14.0373 5.22263 14.051 5.21197 14.065 5.20197H14.066L18.579 2.60397C18.6362 2.57154 18.7008 2.55449 18.7665 2.55449C18.8322 2.55449 18.8968 2.57154 18.954 2.60397L23.467 5.20197C23.483 5.21197 23.494 5.22297 23.509 5.23297L23.545 5.26097L23.579 5.30497C23.587 5.31697 23.598 5.32597 23.603 5.33797C23.6131 5.35705 23.6212 5.37716 23.627 5.39797C23.6337 5.40797 23.6387 5.41863 23.642 5.42997ZM22.902 10.462V6.17897L21.324 7.08697L19.142 8.34297V12.626L22.902 10.462ZM18.392 18.212V13.925L16.245 15.15L10.119 18.648V22.973L18.392 18.212ZM1.09299 3.62397V18.212L9.36599 22.973V18.648L5.04399 16.203L5.04199 16.2H5.03999L4.99999 16.169L4.96499 16.142L4.96399 16.14C4.95199 16.128 4.94166 16.1146 4.93299 16.1C4.92233 16.0893 4.91299 16.0773 4.90499 16.064H4.90299L4.88299 16.017C4.87699 16.001 4.86899 15.99 4.86499 15.974L4.85699 15.917C4.85366 15.9036 4.85166 15.89 4.85099 15.876V5.78897L2.67099 4.53197L1.09299 3.62397ZM5.22999 0.809968L1.46999 2.97397L5.22999 5.13797L8.98799 2.97397L5.22999 0.809968ZM7.18599 14.315L9.36799 13.059V3.62397L7.78799 4.53397L5.60599 5.78897V15.224L7.18599 14.315ZM18.767 3.36497L15.007 5.52797L18.767 7.69097L22.526 5.52697L18.767 3.36497ZM18.391 8.34297L16.21 7.08697L14.63 6.17997V10.463L16.812 11.719L18.392 12.627L18.391 8.34297ZM9.74099 17.997L15.255 14.849L18.011 13.277L14.254 11.114L9.93099 13.603L5.98999 15.873L9.74099 17.997Z" fill="#A5C9CA"/>
</g>
<defs>
<clipPath id="clip0_1234_747">
<rect width="24" height="24" fill="white"/>
</clipPath>
</defs>
</svg>
