<svg width="24" height="24" viewBox="0 0 24 24" fill="none" xmlns="http://www.w3.org/2000/svg">
<path d="M21.3334 20.6656V13.9606C21.3334 10.3683 19.3596 8.69671 16.7269 8.69671C14.6024 8.69671 13.651 9.83187 13.1213 10.6283V8.97094H9.11983C9.17269 10.069 9.11983 20.6656 9.11983 20.6656H13.1213V14.1343C13.1213 13.7858 13.1471 13.4362 13.2529 13.1871C13.5419 12.489 14.1998 11.7657 15.3053 11.7657C16.7538 11.7657 17.333 12.8375 17.333 14.4097V20.6667L21.3334 20.6656ZM4.90358 7.37472C6.29813 7.37472 7.16747 6.47555 7.16747 5.3535C7.1416 4.20632 6.29813 3.33337 4.92945 3.33337C3.56077 3.33337 2.66669 4.20632 2.66669 5.3535C2.66669 6.47665 3.5349 7.37472 4.87884 7.37472H4.90358ZM6.90431 20.6656V8.97094H2.90398V20.6656H6.90431Z" fill="#A5C9CA"/>
</svg>
