<svg width="24" height="24" viewBox="0 0 24 24" fill="none" xmlns="http://www.w3.org/2000/svg">
<g clip-path="url(#clip0_1234_764)">
<path d="M12 23.956C11.658 23.956 11.34 23.867 11.043 23.713L8.014 21.975C7.559 21.733 7.787 21.645 7.924 21.601C8.538 21.403 8.652 21.359 9.29 21.006C9.358 20.962 9.45 20.984 9.518 21.028L11.841 22.371C11.931 22.415 12.046 22.415 12.114 22.371L21.201 17.287C21.291 17.243 21.337 17.155 21.337 17.045V6.89899C21.337 6.78899 21.292 6.70099 21.201 6.65699L12.114 1.59599C12.023 1.55199 11.909 1.55199 11.841 1.59599L2.754 6.65699C2.663 6.70099 2.617 6.81099 2.617 6.89899V17.045C2.617 17.133 2.663 17.243 2.754 17.287L5.236 18.674C6.58 19.334 7.422 18.564 7.422 17.794V7.77999C7.422 7.64799 7.536 7.51599 7.696 7.51599H8.857C8.994 7.51599 9.13 7.62599 9.13 7.77999V17.793C9.13 19.532 8.151 20.544 6.443 20.544C5.919 20.544 5.509 20.544 4.348 19.994L1.957 18.674C1.66888 18.5156 1.42828 18.2831 1.26005 18.0006C1.09181 17.7181 1.00204 17.3958 1 17.067V6.92099C1 6.26099 1.364 5.64499 1.957 5.31499L11.044 0.229986C11.3398 0.0782726 11.6675 -0.000854492 12 -0.000854492C12.3325 -0.000854492 12.6602 0.0782726 12.956 0.229986L22.044 5.31399C22.636 5.64399 23 6.25999 23 6.91999V17.066C23 17.726 22.636 18.342 22.044 18.673L12.957 23.756C12.655 23.8869 12.3292 23.9543 12 23.954M14.801 16.977C10.816 16.977 9.996 15.217 9.996 13.72C9.996 13.588 10.11 13.456 10.269 13.456H11.453C11.59 13.456 11.703 13.544 11.703 13.676C11.886 14.842 12.41 15.414 14.824 15.414C16.737 15.414 17.557 14.996 17.557 14.006C17.557 13.434 17.329 13.016 14.346 12.73C11.863 12.487 10.315 11.96 10.315 10.045C10.315 8.26199 11.863 7.20499 14.46 7.20499C17.375 7.20499 18.81 8.17399 18.992 10.287C18.99 10.3585 18.9659 10.4277 18.923 10.485C18.878 10.529 18.81 10.573 18.741 10.573H17.557C17.4995 10.5716 17.444 10.5515 17.3989 10.5158C17.3538 10.4801 17.3215 10.4307 17.307 10.375C17.033 9.16499 16.327 8.76799 14.46 8.76799C12.364 8.76799 12.114 9.47199 12.114 10.001C12.114 10.639 12.41 10.837 15.234 11.189C18.035 11.541 19.356 12.047 19.356 13.939C19.333 15.877 17.694 16.977 14.801 16.977Z" fill="#A5C9CA"/>
</g>
<defs>
<clipPath id="clip0_1234_764">
<rect width="24" height="24" fill="white"/>
</clipPath>
</defs>
</svg>
