<svg width="24" height="24" viewBox="0 0 24 24" fill="none" xmlns="http://www.w3.org/2000/svg">
<g clip-path="url(#clip0_1236_790)">
<path d="M16.71 0.24297L16.59 2.95297C16.5885 2.98725 16.5969 3.02123 16.6141 3.05091C16.6313 3.08059 16.6567 3.10473 16.6871 3.1205C16.7176 3.13626 16.752 3.14298 16.7861 3.13988C16.8203 3.13677 16.8529 3.12397 16.88 3.10297L17.94 2.30297L18.84 3.00297C18.8664 3.02069 18.8971 3.03109 18.9288 3.03311C18.9606 3.03513 18.9923 3.0287 19.0208 3.01447C19.0492 3.00024 19.0734 2.97872 19.0908 2.95211C19.1083 2.9255 19.1183 2.89474 19.12 2.86297L19.02 0.10297L20.35 0.00296973C20.5141 -0.00785764 20.6787 0.0151626 20.8335 0.0706013C20.9884 0.12604 21.1301 0.212714 21.2501 0.325242C21.37 0.43777 21.4655 0.57375 21.5307 0.724741C21.5959 0.875732 21.6294 1.03851 21.629 1.20297V22.799C21.6292 22.9617 21.5963 23.1228 21.5323 23.2725C21.4683 23.4221 21.3745 23.5572 21.2566 23.6694C21.1387 23.7817 20.9993 23.8688 20.8467 23.9254C20.6941 23.9821 20.5316 24.0071 20.369 23.999L4.27301 23.279C3.97029 23.2665 3.68349 23.14 3.47018 22.9248C3.25687 22.7097 3.13285 22.4218 3.12301 22.119L2.37301 2.32197C2.36354 2.16432 2.38529 2.00636 2.437 1.85714C2.48871 1.70791 2.56937 1.57036 2.67435 1.45238C2.77933 1.33439 2.90657 1.23828 3.04877 1.16957C3.19097 1.10086 3.34533 1.0609 3.50301 1.05197L16.7 0.22197L16.71 0.24297ZM13.64 9.29997C13.64 9.76997 16.8 9.53997 17.23 9.21997C17.23 6.01997 15.51 4.32997 12.371 4.32997C9.22101 4.32997 7.47201 6.04997 7.47201 8.61997C7.47201 13.07 13.471 13.15 13.471 15.579C13.471 16.279 13.151 16.679 12.421 16.679C11.461 16.679 11.071 16.189 11.121 14.519C11.121 14.159 7.47201 14.039 7.35201 14.519C7.08201 18.549 9.58201 19.719 12.451 19.719C15.241 19.719 17.42 18.229 17.42 15.539C17.42 10.769 11.321 10.899 11.321 8.53997C11.321 7.56997 12.041 7.43997 12.451 7.43997C12.901 7.43997 13.701 7.50997 13.641 9.30997L13.64 9.29997Z" fill="#A5C9CA"/>
</g>
<defs>
<clipPath id="clip0_1236_790">
<rect width="24" height="24" fill="white"/>
</clipPath>
</defs>
</svg>
