<svg width="24" height="24" viewBox="0 0 24 24" fill="none" xmlns="http://www.w3.org/2000/svg">
<path d="M6 9.59377C6.79978 6.38564 8.80022 4.78125 12 4.78125C16.8 4.78125 17.4 8.39062 19.8 8.99217C21.4002 9.39342 22.8 8.79187 24 7.18748C23.2002 10.3956 21.1998 12 18 12C13.2 12 12.6 8.39063 10.2 7.78908C8.59978 7.38783 7.2 7.98938 6 9.59377ZM0 16.8125C0.799781 13.6044 2.80022 12 6 12C10.8 12 11.4 15.6094 13.8 16.2109C15.4002 16.6122 16.8 16.0106 18 14.4062C17.2002 17.6144 15.1998 19.2188 12 19.2188C7.2 19.2188 6.6 15.6094 4.2 15.0078C2.59978 14.6066 1.2 15.2081 0 16.8125Z" fill="#A5C9CA"/>
</svg>
